<svg width="20" height="20" viewBox="0 0 20 20" fill="none" xmlns="http://www.w3.org/2000/svg">
<rect x="7.5" y="7.5" width="8.33333" height="2.22222" rx="1.11111" fill="white"/>
<rect x="5.27783" y="11.1111" width="8.33333" height="2.22222" rx="1.11111" fill="white"/>
<rect x="2.72217" y="2.72217" width="15.1111" height="14.5556" rx="3.5" stroke="#1B6EBA"/>
<path d="M2.5 6.11108H18.0556" stroke="#1B6EBA"/>
<rect x="6.11108" y="0.555664" width="1.66667" height="3.88889" rx="0.833333" fill="#1B6EBA"/>
<rect x="12.7778" y="0.555664" width="1.66667" height="3.88889" rx="0.833333" fill="#1B6EBA"/>
<path d="M6.2777 8.09033C6.13701 8.13137 5.95822 8.32481 5.91718 8.4743C5.84977 8.73516 5.95236 9.00774 6.17512 9.1455C6.34218 9.25102 6.62649 9.24516 6.79063 9.13671C6.97236 9.01654 7.04856 8.87292 7.04856 8.6443C7.04856 8.41861 6.97236 8.27205 6.79942 8.15774C6.67339 8.07274 6.43305 8.04343 6.2777 8.09033Z" fill="white"/>
<path d="M8.82775 8.09033C8.68706 8.13137 8.50827 8.32481 8.46723 8.4743C8.39982 8.73516 8.50241 9.00774 8.72516 9.1455C8.89223 9.25102 9.17654 9.24516 9.34068 9.13671C9.5224 9.01654 9.59861 8.87292 9.59861 8.6443C9.59861 8.41861 9.5224 8.27205 9.34947 8.15774C9.22344 8.07274 8.98309 8.04343 8.82775 8.09033Z" fill="#1B6EBA"/>
<path d="M11.3776 8.09033C11.2369 8.13137 11.0581 8.32481 11.017 8.4743C10.9496 8.73516 11.0522 9.00774 11.275 9.1455C11.442 9.25102 11.7263 9.24516 11.8905 9.13671C12.0722 9.01654 12.1484 8.87292 12.1484 8.6443C12.1484 8.41861 12.0722 8.27205 11.8993 8.15774C11.7732 8.07274 11.5329 8.04343 11.3776 8.09033Z" fill="#1B6EBA"/>
<path d="M6.2777 11.689C6.13701 11.73 5.95822 11.9234 5.91718 12.0729C5.84977 12.3338 5.95236 12.6064 6.17512 12.7441C6.34218 12.8497 6.62649 12.8438 6.79063 12.7353C6.97236 12.6152 7.04856 12.4715 7.04856 12.2429C7.04856 12.0172 6.97236 11.8707 6.79942 11.7564C6.67339 11.6714 6.43305 11.6421 6.2777 11.689Z" fill="#1B6EBA"/>
<path d="M8.82775 11.689C8.68706 11.73 8.50827 11.9234 8.46723 12.0729C8.39982 12.3338 8.50241 12.6064 8.72516 12.7441C8.89223 12.8497 9.17654 12.8438 9.34068 12.7353C9.5224 12.6152 9.59861 12.4715 9.59861 12.2429C9.59861 12.0172 9.5224 11.8707 9.34947 11.7564C9.22344 11.6714 8.98309 11.6421 8.82775 11.689Z" fill="#1B6EBA"/>
<path d="M11.3776 11.689C11.2369 11.73 11.0581 11.9234 11.017 12.0729C10.9496 12.3338 11.0522 12.6064 11.275 12.7441C11.442 12.8497 11.7263 12.8438 11.8905 12.7353C12.0722 12.6152 12.1484 12.4715 12.1484 12.2429C12.1484 12.0172 12.0722 11.8707 11.8993 11.7564C11.7732 11.6714 11.5329 11.6421 11.3776 11.689Z" fill="#1B6EBA"/>
<path d="M14.2699 8.09033C14.1292 8.13137 13.9504 8.32481 13.9094 8.4743C13.842 8.73516 13.9445 9.00774 14.1673 9.1455C14.3344 9.25102 14.6187 9.24516 14.7828 9.13671C14.9645 9.01654 15.0407 8.87292 15.0407 8.6443C15.0407 8.41861 14.9645 8.27205 14.7916 8.15774C14.6656 8.07274 14.4252 8.04343 14.2699 8.09033Z" fill="#1B6EBA"/>
<path d="M14.2699 11.689C14.1292 11.73 13.9504 11.9234 13.9094 12.0729C13.842 12.3338 13.9445 12.6064 14.1673 12.7441C14.3344 12.8497 14.6187 12.8438 14.7828 12.7353C14.9645 12.6152 15.0407 12.4715 15.0407 12.2429C15.0407 12.0172 14.9645 11.8707 14.7916 11.7564C14.6656 11.6714 14.4252 11.6421 14.2699 11.689Z" fill="#1B6EBA"/>
<path d="M8.82775 14.4246C8.68706 14.4656 8.50827 14.659 8.46723 14.8085C8.39982 15.0694 8.50241 15.342 8.72516 15.4797C8.89223 15.5852 9.17654 15.5794 9.34068 15.4709C9.5224 15.3508 9.59861 15.2071 9.59861 14.9785C9.59861 14.7528 9.5224 14.6063 9.34947 14.492C9.22344 14.407 8.98309 14.3777 8.82775 14.4246Z" fill="#1B6EBA"/>
<path d="M11.3776 14.4246C11.2369 14.4656 11.0581 14.659 11.017 14.8085C10.9496 15.0694 11.0522 15.342 11.275 15.4797C11.442 15.5852 11.7263 15.5794 11.8905 15.4709C12.0722 15.3508 12.1484 15.2071 12.1484 14.9785C12.1484 14.7528 12.0722 14.6063 11.8993 14.492C11.7732 14.407 11.5329 14.3777 11.3776 14.4246Z" fill="#1B6EBA"/>
<path d="M14.2699 14.4246C14.1292 14.4656 13.9504 14.659 13.9094 14.8085C13.842 15.0694 13.9445 15.342 14.1673 15.4797C14.3344 15.5852 14.6187 15.5794 14.7828 15.4709C14.9645 15.3508 15.0407 15.2071 15.0407 14.9785C15.0407 14.7528 14.9645 14.6063 14.7916 14.492C14.6656 14.407 14.4252 14.3777 14.2699 14.4246Z" fill="white"/>
<path d="M6.2777 14.4246C6.13701 14.4656 5.95822 14.659 5.91718 14.8085C5.84977 15.0694 5.95236 15.342 6.17512 15.4797C6.34218 15.5852 6.62649 15.5794 6.79063 15.4709C6.97236 15.3508 7.04856 15.2071 7.04856 14.9785C7.04856 14.7528 6.97236 14.6063 6.79942 14.492C6.67339 14.407 6.43305 14.3777 6.2777 14.4246Z" fill="#1B6EBA"/>
</svg>
